<?xml version="1.0" encoding="UTF-8" standalone="no"?>
<!-- Created with Inkscape (http://www.inkscape.org/) -->

<svg
   version="1.1"
   id="svg1"
   width="81.765137"
   height="84.962952"
   viewBox="0 0 81.765137 84.962952"
   sodipodi:docname="Screenshot 2023-09-18 023935.png"
   xml:space="preserve"
   xmlns:inkscape="http://www.inkscape.org/namespaces/inkscape"
   xmlns:sodipodi="http://sodipodi.sourceforge.net/DTD/sodipodi-0.dtd"
   xmlns="http://www.w3.org/2000/svg"
   xmlns:svg="http://www.w3.org/2000/svg"><defs
     id="defs1" /><sodipodi:namedview
     id="namedview1"
     pagecolor="#505050"
     bordercolor="#eeeeee"
     borderopacity="1"
     inkscape:showpageshadow="0"
     inkscape:pageopacity="0"
     inkscape:pagecheckerboard="0"
     inkscape:deskcolor="#505050" /><g
     inkscape:groupmode="layer"
     id="layer3"
     inkscape:label="Layer 2"
     transform="translate(-431.95618,235.40346)"><path
       d="m 466.22134,-151.16973 -5,-0.72922 -6.74889,-3.25937 -6.74888,-3.25936 -5.75112,-6.50071 -5.75111,-6.5007 -1.45431,-2.67746 -1.45431,-2.67746 -0.67827,-6 -0.67828,-6 0.94038,-7.2829 0.94038,-7.28291 2.4422,-4.86232 2.44221,-4.86232 v -1.39804 -1.39805 l 4.9332,-4.65603 4.93321,-4.65604 4.95715,-2.51198 4.95714,-2.51197 6.85965,-1.58021 6.85965,-1.58021 3.25,-1.02323 3.25,-1.02324 3.75,1.16477 3.75,1.16477 2.75,1.35345 2.75,1.35344 v -1.45349 -1.45349 h 1.27889 1.27889 l 6.22111,6.27691 6.22111,6.2769 v 1.60225 1.60226 l 2.56112,5.87084 2.56111,5.87084 0.93889,1.73643 0.93888,1.73643 v 6.07931 6.07932 l -1.14628,2.14184 -1.14628,2.14184 0.088,3.04241 0.088,3.04242 -2.79056,4.5 -2.79056,4.5 -2.65501,4.68466 -2.65502,4.68465 -2.74614,1.86942 -2.74614,1.86941 -4.5,1.88356 -4.5,1.88356 -1.67612,1.4005 -1.67612,1.4005 -5.82388,0.32863 -5.82388,0.32862 z m 16.65508,-3.85935 0.80822,-0.80823 -7.12424,0.40256 -7.12423,0.40255 -0.90711,-1.6209 -0.9071,-1.6209 -4.70031,-0.0313 -4.70031,-0.0313 -4.75,-2.32783 -4.75,-2.32783 v 0.49886 0.49886 l 1.75,1.4057 1.75,1.4057 4.5,2.07295 4.5,2.07294 5.5,0.80432 5.5,0.80433 4.92342,-0.39615 4.92343,-0.39615 z m 7.34492,-3.77765 4,-2.44599 2.07524,-0.91945 2.07523,-0.91945 1.49952,-2.34119 1.49953,-2.3412 0.6884,-2 0.6884,-2 -1.76316,2.05132 -1.76316,2.05132 -3.81522,2.94868 -3.81523,2.94868 -3.58345,2.75001 -3.58345,2.75 0.89867,-0.0434 0.89868,-0.0434 z m -7.60394,-0.41425 3.81639,-1.94698 5.33401,-4.55302 5.334,-4.55303 h 0.6678 0.66779 l 2.5941,-5 2.59409,-5 -0.70212,0.0385 -0.70212,0.0385 -2.01574,3.21148 -2.01574,3.21148 -2.23426,0.31955 -2.23426,0.31955 v -1.01053 -1.01053 l 0.90612,-0.56002 0.90612,-0.56001 -0.53477,-2.04495 -0.53476,-2.04495 3.12864,-2.79325 3.12865,-2.79326 v -1.1608 -1.1608 h 0.89734 0.89735 l 1.10265,-6.33191 1.10266,-6.33191 -0.0153,-1.91809 -0.0153,-1.91809 -0.93336,-1.47598 -0.93337,-1.47598 -3.50969,3.97598 -3.5097,3.97598 -0.0416,1.25 -0.0416,1.25 h -1.5 -1.5 l 0.0181,-1.75 0.0181,-1.75 3.02407,-5.48691 3.02407,-5.48692 -1.15807,-2.51308 -1.15808,-2.51309 -0.71469,-1.45496 -0.71469,-1.45497 -3.68331,-2.98115 -3.6833,-2.98114 -1.17372,1.17372 -1.17372,1.17371 -0.0624,3.8072 -0.0624,3.8072 -1.77305,2.70519 -1.77306,2.7052 h -1.35194 -1.35195 l -0.61413,-3.07067 -0.61414,-3.07067 1.26042,-2.67933 1.26041,-2.67933 -0.0213,-2.47817 -0.0213,-2.47817 -4,-0.66705 -4,-0.66706 -3.16235,1.30758 -3.16235,1.30758 -2.18011,2.1801 -2.1801,2.1801 -1.87244,-0.48965 -1.87245,-0.48966 -2.58662,2.3972 -2.58662,2.3972 -1.19848,0.0722 -1.19848,0.0722 -2.84288,3.42138 -2.84288,3.42138 3.09288,-0.61858 3.09288,-0.61857 v 1.59932 1.59932 l -2.95034,1.52568 -2.95034,1.52568 h -1.57441 -1.57441 l -1.07303,2.75 -1.07304,2.75 0.0646,4.41685 0.0646,4.41685 0.9797,0.9797 0.9797,0.9797 5.80345,-1.05227 5.80345,-1.05228 2.25,-0.7109 2.25,-0.71091 v 2.14138 2.14138 l -2.48884,0.94626 -2.48885,0.94625 -6.51115,0.66709 -6.51116,0.66709 0.022,1.1119 0.022,1.11191 1.94742,4.2908 1.94741,4.29081 1.4592,1.45919 1.45919,1.4592 h 4.14475 4.14476 l -0.33218,1.72488 -0.33219,1.72488 -2.23031,1.11194 -2.23031,1.11193 2.73917,1.29698 2.73917,1.29698 2.20854,1.01299 2.20854,1.013 5.971,-0.62409 5.971,-0.6241 5.32046,-2.02219 5.32046,-2.02219 1.25,-5.1e-4 1.25,-5e-4 v 1.2726 1.27259 l -5.24813,3.22741 -5.24813,3.2274 h 2.28797 2.28797 z m 5.27519,-9.72182 0.34918,-1.83121 2.32875,-0.33121 2.32875,-0.33121 -0.34918,1.83121 -0.34918,1.83121 -2.32875,0.33121 -2.32875,0.33121 z m -14.6178,-9.89796 -0.66912,-3.56675 -2.84697,0.6253 -2.84696,0.62529 -0.70807,-1.14567 -0.70807,-1.14568 1.11287,-1.11287 1.11287,-1.11287 v -0.66133 -0.66132 l -2.58701,0.49453 -2.58701,0.49454 0.33701,-2.35818 0.33701,-2.35817 2.2766,-1.13051 2.27661,-1.13051 -1.52661,-1.26697 -1.5266,-1.26697 v -1.40894 -1.40894 l 1.56722,-0.6014 1.56721,-0.60139 1.13279,1.13278 1.13278,1.13278 h 0.75469 0.75468 l 0.65661,-3.5 0.6566,-3.5 h 2.38871 2.38871 v 3.00848 3.00847 l 1.97504,-1.23343 1.97504,-1.23344 1.11806,1.11806 1.11806,1.11806 -1.66127,2.53541 -1.66126,2.5354 4.62178,0.69308 4.62179,0.69308 -0.30362,2.12842 -0.30362,2.12841 -3.22029,0.31114 -3.22029,0.31115 1.19525,1.9139 1.19525,1.91389 -1.24992,1.24992 -1.24992,1.24992 -1.96147,-1.22496 -1.96147,-1.22496 h -0.51357 -0.51357 v 4 4 h -1.88871 -1.88871 z m 2.11322,-3.09991 -0.66667,-0.66667 v 1.33333 1.33334 l 0.66667,-0.66667 0.66666,-0.66667 z m 3.33333,-2.83334 v -0.5 h -0.5 -0.5 v 0.5 0.5 h 0.5 0.5 z m 1.44475,-1.56105 -1.86522,-2.06105 1.18147,-0.73019 1.18147,-0.73019 -2.55827,-2.75897 -2.55826,-2.75898 -1.36917,1.13631 -1.36916,1.1363 -0.82345,-0.50892 -0.82345,-0.50892 0.1984,2.67283 0.19841,2.67283 0.0812,1.13337 0.0812,1.13337 2,0.52301 2,0.52301 v -0.90638 -0.90638 h 1.37755 1.37756 l 1.24489,1.5 1.24489,1.5 h 0.53254 0.53254 z m -10.44475,-0.43895 v -0.5 h -0.5 -0.5 v 0.5 0.5 h 0.5 0.5 z m -4,-2 v -0.5 h -0.5 -0.5 v 0.5 0.5 h 0.5 0.5 z m 20,-1 v -0.5 h -0.5 -0.5 v 0.5 0.5 h 0.5 0.5 z m -17,-6 v -0.5 h -0.5 -0.5 v 0.5 0.5 h 0.5 0.5 z m 6.68311,-5.6875 -0.52522,-1.3125 -0.0789,1.91667 -0.0789,1.91667 0.60417,-0.60417 0.60416,-0.60417 z m -23.68311,-9.3125 v -1.5 h 1.5 1.5 v 1.5 1.5 h -1.5 -1.5 z m 4.5,-2.5 -0.61803,-1 0.61803,-1 0.61803,-1 h 1.44099 1.44098 v 2 2 h -1.44098 -1.44099 z m 16.22917,53.39584 -0.60417,-0.60417 -1.3125,0.52522 -1.3125,0.52522 1.91667,0.079 1.91666,0.0789 z m 2.27083,-0.89584 v -0.5 h -0.5 -0.5 v 0.5 0.5 h 0.5 0.5 z m 5,-2 v -0.5 h -0.5 -0.5 v 0.5 0.5 h 0.5 0.5 z m -32.98943,-1.98726 -1.23432,-1.48727 0.60042,-1.56467 0.60042,-1.56467 -0.90793,0.56113 -0.90792,0.56112 -1.43773,-1.43773 -1.43773,-1.43772 -2.82957,-6.65772 -2.82957,-6.65772 1.17656,-1.88398 1.17656,-1.88397 -1.8669,-0.99914 -1.86691,-0.99914 0.45885,5.67727 0.45886,5.67727 1.55658,3.0421 1.55658,3.0421 3.95471,4.75 3.95471,4.75 h 0.52932 0.52933 z m 3.6561,-4.1794 -0.66667,-0.66667 -0.66667,0.66667 -0.66666,0.66666 h 1.33333 1.33333 z m 53.33333,-3.83334 v -0.5 h -0.5 -0.5 v 0.5 0.5 h 0.5 0.5 z m -7,-2 v -0.5 h -0.5 -0.5 v 0.5 0.5 h 0.5 0.5 z m 8.5,-0.5 0.61803,-1 h -0.5 -0.5 l -0.61803,1 -0.61803,1 h 0.5 0.5 z m 3.92711,-8.76601 0.68361,-4.73399 0.55069,-5.55445 0.55068,-5.55445 -1.56061,-4.59666 -1.56061,-4.59667 -2.0417,-3.34888 -2.04169,-3.34889 -0.004,-1.79284 -0.004,-1.79284 -4.66944,-4.99201 -4.66945,-4.99201 -0.80182,1.28485 -0.80182,1.28485 -4.27874,-2.17894 -4.27873,-2.17895 -3.2118,-0.64212 -3.21181,-0.64212 -1.78819,1.04066 -1.7882,1.04065 2.63922,0.0304 2.63921,0.0304 2.35316,1.90547 2.35315,1.90547 1.75763,-0.94065 1.75763,-0.94065 2.08847,1.11771 2.08848,1.11772 3.91152,3.53383 3.91153,3.53383 v 1.88364 1.88363 h 1 1 v 2 2 h 1.55103 1.55102 l 1.59322,3.75 1.59322,3.75 -1.13529,7.94652 -1.13529,7.94652 1.17694,0.72739 1.17693,0.72738 -1.04922,4.58512 -1.04923,4.58512 1.23509,-1.02503 1.23508,-1.02503 z m -10.42711,4.26601 v -0.5 h -0.5 -0.5 v 0.5 0.5 h 0.5 0.5 z m 3,-3 v -0.5 h -0.5 -0.5 v 0.5 0.5 h 0.5 0.5 z m 2,-2 v -0.5 h -0.5 -0.5 v 0.5 0.5 h 0.5 0.5 z m -56,-3 v -0.5 h -0.5 -0.5 v 0.5 0.5 h 0.5 0.5 z m 8,-2 v -0.5 h -0.5 -0.5 v 0.5 0.5 h 0.5 0.5 z m -20,-2 v -0.5 h -0.5 -0.5 v 0.5 0.5 h 0.5 0.5 z m 1,-2.5 v -1 h -1.05902 -1.05901 l 0.61803,1 0.61803,1 h 0.44099 0.44098 z m 0,-3.5 v -0.5 h -0.5 -0.5 v 0.5 0.5 h 0.5 0.5 z m 1.80687,-7.02646 -0.55979,-0.55979 -0.68279,1.79312 -0.68278,1.79313 1.24258,-1.23333 1.24258,-1.23333 z m 60.19313,-0.97354 v -0.5 h -0.5 -0.5 v 0.5 0.5 h 0.5 0.5 z m -57.02758,-4.1818 0.52758,-2.03353 3.21945,-3.64233 3.21945,-3.64234 h 0.80769 0.80769 l 3.28458,-3 3.28458,-3 h 2.32749 2.3275 l 2.36079,-2.01105 2.36078,-2.01106 -6,2.16551 -6,2.16552 -2.5,1.59207 -2.5,1.59208 -3.65345,3.50347 -3.65345,3.50346 -1.57772,3.82706 -1.57772,3.82706 1.20359,-0.4012 1.20358,-0.4012 z m 6.02758,1.1818 v -0.5 h -0.5 -0.5 v 0.5 0.5 h 0.5 0.5 z m 33,-7 v -0.5 h -0.5 -0.5 v 0.5 0.5 h 0.5 0.5 z m 3,0 v -0.5 h -0.5 -0.5 v 0.5 0.5 h 0.5 0.5 z m -1,-4 v -0.5 h -0.5 -0.5 v 0.5 0.5 h 0.5 0.5 z m 0.66667,-5.16666 -0.66667,-0.66667 v 1.33333 1.33334 l 0.66667,-0.66667 0.66666,-0.66667 z m -15,-5 -0.66667,-0.66667 -0.66667,0.66667 -0.66666,0.66666 h 1.33333 1.33333 z m 3.33333,-0.83334 v -0.5 h -0.5 -0.5 v 0.5 0.5 h 0.5 0.5 z"
       style="fill:#000000"
       id="path1-6"
       sodipodi:nodetypes="ccccccccccccccccccccccccccccccccccccccccccccccccccccccccccccccccccccccccccccccccccccccccccccccccccccccccccccccccccccccccccccccccccccccccccccccccccccccccccccccccccccccccccccccccccccccccccccccccccccccccccccccccccccccccccccccccccccccccccccccccccccccccccccccccccccccccccccccccccccccccccccccccccccccccccccccccccccccccccccccccccccccccccccccccccccccccccccccccccccccccccccccccccccccccccccccccccccccccccccccccccccccccccccccccccccccccccccccccccccccccccccccccccccccccccccccccccccccccccccccccccccccccccccccccccccccccccccccccccccccccccccccccccccccccccccccccccccccccccccccccccccccccccccccccccccccccccccccccccccccccccccccccccccccccccccccccccccccccccccccccccccccccccccccccccccccccccccccccccccccccccccccccccccccccc" /></g></svg>
