<?xml version="1.0" encoding="UTF-8" standalone="no"?>
<!-- Created with Inkscape (http://www.inkscape.org/) -->

<svg
   version="1.1"
   id="svg1"
   width="78.065155"
   height="105.1292"
   viewBox="0 0 78.065155 105.1292"
   sodipodi:docname="Screenshot 2023-09-18 023935.png"
   xml:space="preserve"
   xmlns:inkscape="http://www.inkscape.org/namespaces/inkscape"
   xmlns:sodipodi="http://sodipodi.sourceforge.net/DTD/sodipodi-0.dtd"
   xmlns="http://www.w3.org/2000/svg"
   xmlns:svg="http://www.w3.org/2000/svg"><defs
     id="defs1" /><sodipodi:namedview
     id="namedview1"
     pagecolor="#505050"
     bordercolor="#eeeeee"
     borderopacity="1"
     inkscape:showpageshadow="0"
     inkscape:pageopacity="0"
     inkscape:pagecheckerboard="0"
     inkscape:deskcolor="#505050" /><path
     style="fill:#000000"
     d="m 31.359806,104.11894 -1.85981,-0.73132 -3,-0.0671 -3,-0.0671 -7.5,-2.19041 -7.4999996,-2.190424 -3.09439,-2.31275 -3.09439,-2.31275 H 1.1556064 -3.5595703e-6 v -2.31217 -2.31217 L 1.9999964,85.483216 l 2,-4.139521 v -0.908769 -0.908759 l 2.30165,-3.391679 2.30166,-3.39168 2.4358596,-5.997867 2.43587,-5.997868 7.88066,-15.999996 7.88065,-16 1.88183,-2.65437 1.88182,-2.65437 v -0.50201 -0.50201 l -1.88714,0.49349 -1.88714,0.4935 -0.71082,-1.15013 -0.71082,-1.15013 1.75957,-1.94431 1.75958,-1.94431 -3.04034,0.60807 -3.04033,0.60806 -0.78039,-1.26269 -0.78039,-1.2627 2.32392,-1.88179 2.32392,-1.8818 1.52912,0.58678 1.52913,0.58678 -1.69394,-1.87177 -1.69393,-1.8717698 v -1.75072 -1.75071 l 3.00873,0.66082 3.00872,0.66083 0.63346,-3.16732 0.63347,-3.16732 1.40094,-0.53759003 1.40094,-0.5375900020312 0.61907,0.6190700020312 0.61907,0.61907003 -0.13464,3.58121 -0.13463,3.58121 1.90145,-2.32674 1.90145,-2.32674 1.24386,1.22287 1.24386,1.22287 -1.12861,2.47704 -1.12861,2.4770298 4.20573,0.83172 4.20574,0.83172 v 1.96837 1.96838 l -3.06948,0.29989 -3.06949,0.2999 0.43298,2.9501 0.43299,2.95011 h -1.28476 -1.28476 l -2.07874,-1.74285 -2.07874,-1.74285 2.25,2.5573 2.25,2.5573 v 0.69686 0.69686 l 3.75351,5.73869 3.75351,5.73869 1.21969,2 1.2197,2 4.0268,8.03514 4.02679,8.035136 v 1.037278 1.037278 l 3.06485,5.658646 3.06486,5.658647 0.93514,0.577952 0.93515,0.577953 v 1.785995 1.785996 l 2.10238,1.902627 2.10238,1.902627 1.27937,2.502364 1.27937,2.50236 0.65083,4 0.65083,4 -3.55347,2.8093 -3.55348,2.8093 -2.7291,0.82199 -2.72911,0.821994 -6,1.71086 -6,1.71086 -3,0.84891 -3,0.84891 -7.14019,-0.13946 -7.14018,-0.13945 z m 2.64019,-2.37189 v -0.5 h -0.5 -0.5 v 0.5 0.5 h 0.5 0.5 z m 13.25,-0.16228 -1.25,-0.50439 -1.25,0.50439 -1.25,0.50438 h 2.5 2.5 z m -20,-1 -1.25,-0.50439 -1.25,0.50439 -1.25,0.50438 h 2.5 2.5 z m 27.47917,0.0581 -0.60417,-0.60417 -1.3125,0.52522 -1.3125,0.52522 1.91667,0.079 1.91666,0.0789 z m -17.36896,-4.395834 0.54818,-3.5 -0.55293,-2.21147 -0.55293,-2.21146 -4.29805,0.33865 -4.29805,0.33866 -0.85322,0.50746 -0.85321,0.50745 -4.5,0.73148 -4.5,0.73149 -1.85736,0.97651 -1.85736,0.97651 0.9851,0.98509 0.98509,0.9851 3.87227,1.00256 3.87226,1.00256 6.5,1.24127 6.5,1.24126 0.15601,-0.0716 0.15602,-0.0716 z m 2.3229,1.8125 -0.52522,-1.3125 -0.0789,1.91666 -0.0789,1.916674 0.60417,-0.604174 0.60416,-0.60416 z m 19.31689,1.6875 v -0.5 h -0.5 -0.5 v 0.5 0.500004 h 0.5 0.5 z m -42,-1 v -0.5 h -0.5 -0.5 v 0.5 0.5 h 0.5 0.5 z m 43.44874,-2.61676 6.05126,-2.10588 1.39228,-1.31667 1.39228,-1.31668 -3.89228,-0.61251 -3.89228,-0.61251 -3.62283,-0.96154 -3.62283,-0.96153 -6.12717,-0.64042 -6.12717,-0.64042 v 6.28492 6.28491 l 6.19874,-0.6479 6.19875,-0.64789 z m -45.44874,1.61676 v -0.5 h -0.5 -0.5 v 0.5 0.5 h 0.5 0.5 z m 50,0 v -0.5 h -0.5 -0.5 v 0.5 0.5 h 0.5 0.5 z m -52,-1 v -0.5 h -0.5 -0.5 v 0.5 0.5 h 0.5 0.5 z m 54,0 v -0.5 h -0.5 -0.5 v 0.5 0.5 h 0.5 0.5 z m -56.33333,-1.16667 -0.6666696,-0.66667 -0.66667,0.66667 -0.66666,0.66667 h 1.33333 1.3333296 z m 64.33333,-6.57008 v -1.86257 l -1.39762,-2.7027 -1.39762,-2.7027 -2.10238,-1.902631 -2.10238,-1.902627 V 76.21449 74.491922 l -1.57801,-1.30963 -1.57801,-1.309631 -2.29878,-4.562814 -2.29878,-4.562814 -0.69537,-3.216788 -0.69537,-3.216788 -2.32772,-3.43009 -2.32773,-3.43009 -0.71839,-2.35312 -0.7184,-2.35312 -1.23339,-1.5 -1.2334,-1.5 -2.72988,-4.5 -2.72988,-4.5 0.33155,1 0.33156,1 10.2527,20.60369 10.25271,20.603692 3.20903,4.396307 3.20903,4.39631 0.19978,1.25 0.19978,1.25 h -0.93057 -0.93056 l 0.63757,2.54029 0.63757,2.5403 -1.85289,2.2097 -1.85289,2.20971 3.23437,-2.93709 3.23437,-2.9371 z m -68.3504196,0.0486 -1.05338,-1.68811 7.5620596,-15.311889 7.56206,-15.311884 1.59827,-3.499996 1.59827,-3.5 1.40704,-2.5 1.40705,-2.5 1.01631,-3 1.01631,-3 1.71098,-4 1.71097,-4 -0.96887,1 -0.96888,1 -2.81952,6.5 -2.81953,6.5 -1.80436,2.38486 -1.80436,2.38485 v 0.80558 0.80558 l -5,10.522113 -5,10.522108 v 0.558893 0.558892 l -2.3863996,3.72856 -2.3864,3.728563 -1.76152,4.78159 -1.76153,4.78159 1.89793,1.39403 1.89792,1.39403 0.60148,-1.67562 0.60148,-1.67562 z m 14.6028596,-1.39127 6.24756,-1.33045 11,-0.65659 11,-0.65659 0.41667,-0.38849 0.41666,-0.38849 -5.41666,-0.11842 -5.41667,-0.11843 -0.82512,0.14347 -0.82512,0.14346 -10.67488,1.04113 -10.67488,1.04114 -2.75,1.17794 -2.75,1.17793 v 0.58922 0.58922 l 0.65799,0.65799 0.65799,0.65799 1.34445,-1.11579 1.34444,-1.11579 z m -11.2524396,2.07939 v -0.5 h -0.5 -0.5 v 0.5 0.5 h 0.5 0.5 z m 29.9999996,0 v -0.5 h -0.5 -0.5 v 0.5 0.5 h 0.5 0.5 z m 27.87143,-2.51214 -1.62856,-0.95133 -7.37144,-0.46085 -7.37143,-0.46085 8,1.31675 8,1.31675 1,0.0954 1,0.0954 z m -45.94653,-3.68305 10.5751,-1.36097 2,-0.22192 2,-0.22192 1.18942,-2.000003 1.18941,-2 -0.54782,-2.25 -0.54783,-2.25 h 2.10841 2.10841 v 1.5 1.5 l -1.25,0.07895 -1.25,0.07895 1.25,0.504386 1.25,0.504386 v 1.815972 1.815973 l 4.25,0.565201 4.25,0.56519 8.49473,0.95743 8.49473,0.95744 0.20902,-0.20902 0.20902,-0.20902 -3.95375,-6.253114 -3.95375,-6.253108 v -0.507287 -0.507286 l -8.38042,-17.202519 -8.38042,-17.20252 -0.8103,-2 -0.8103,-2 -0.55928,4.42235 -0.55928,4.42234 -1.24947,0.41082 -1.24948,0.41081 -0.58188,-1.83316 -0.58188,-1.83316 -0.94168,-2.3476 -0.94168,-2.34761 -2.97696,5.57871 -2.97697,5.57871 -0.004,1.7689 -0.004,1.76889 -2.99144,4.5 -2.99144,4.500001 -0.0183,1.5 -0.0183,1.5 -3.7874,7 -3.7874,7 -1.37313,3.5 -1.37313,3.5 -2.02207,2.930563 -2.0220696,2.93056 1.37156,-0.84767 1.3715696,-0.84768 z m 18.26027,-56.966639 2.04381,0.53447 -2.11449,-2.25077 -2.11449,-2.25078 v -2.68554 -2.68555 h 1.5 1.5 v -1 -1 l 2.25,-0.13619 2.25,-0.13618 -2.36578,-0.44854 -2.36577,-0.44854 -0.50086,-1.91528 -0.50085,-1.91527 h -1.31005 -1.31004 l -0.4298,-1.2499998 -0.4298,-1.25 0.26285,1.75 0.26286,1.7499998 h -1.20638 -1.20638 l -1.40177,-1.2499998 -1.40177,-1.25 1.26264,1.6758098 1.26265,1.67581 -0.17936,1.32419 -0.17936,1.32419 0.11849,1.75 0.11848,1.75 h 1.5 1.5 v 1.54966 1.54966 l -1.47526,2.85284 -1.47527,2.85284 1.47527,0.56612 1.47526,0.56611 0.16004,2.28138 0.16003,2.28139 0.41065,-3.34815 0.41064,-3.34815 z m 4.81483,5.16183 v -0.5 h -0.5 -0.5 v 0.5 0.5 h 0.5 0.5 z m -11.5,-2.5 0.61803,-1 h -0.5 -0.5 l -0.61803,1 -0.61803,1 h 0.5 0.5 z m 7.5,0.5 v -0.5 h -0.5 -0.5 v 0.5 0.5 h 0.5 0.5 z m 3,0 v -0.5 h -0.5 -0.5 v 0.5 0.5 h 0.5 0.5 z m -2,-20.9999998 v -0.5 h -0.5 -0.5 v 0.5 0.5 h 0.5 0.5 z"
     id="path6"
     sodipodi:nodetypes="cccccccccccccccccccccccccccccccccccccccccccccccccccccccccccccccccccccccccccccccccccccccccccccccccccccccccccccccccccccccccccccccccccccccccccccccccccccccccccccccccccccccccccccccccccccccccccccccccccccccccccccccccccccccccccccccccccccccccccccccccccccccccccccccccccccccccccccccccccccccccccccccccccccccccccccccccccccccccccccccccccccccccccccccccccccccccccccccccccccccccccccccccccccccccccccccccccccccccccccccccccccccccccccccccccccccccccccccccccccccccccccccccccccccccccccccccccccccccccccccccccccccccccccccccccccccccccc" /></svg>
