<?xml version="1.0" encoding="UTF-8" standalone="no"?>
<!-- Created with Inkscape (http://www.inkscape.org/) -->

<svg
   version="1.1"
   id="svg1"
   width="139.99998"
   height="30.100021"
   viewBox="0 0 139.99998 30.100021"
   sodipodi:docname="Screenshot 2023-09-18 023935.png"
   xml:space="preserve"
   xmlns:inkscape="http://www.inkscape.org/namespaces/inkscape"
   xmlns:sodipodi="http://sodipodi.sourceforge.net/DTD/sodipodi-0.dtd"
   xmlns="http://www.w3.org/2000/svg"
   xmlns:svg="http://www.w3.org/2000/svg"><defs
     id="defs1" /><sodipodi:namedview
     id="namedview1"
     pagecolor="#505050"
     bordercolor="#eeeeee"
     borderopacity="1"
     inkscape:showpageshadow="0"
     inkscape:pageopacity="0"
     inkscape:pagecheckerboard="0"
     inkscape:deskcolor="#505050" /><g
     inkscape:groupmode="layer"
     id="layer5"
     inkscape:label="Layer 4"
     transform="translate(-130.25871,-75.281738)"><g
       id="g6"
       transform="translate(99.704576,45.849548)"><path
         d="m 41.11357,54.979989 -0.68265,-4.55223 -1.87265,1.00221 -1.87266,1.00222 h -1.67415 -1.67415 l 0.62746,-2.5 0.62746,-2.5 h -2.01905 -2.01905 v -2.5 -2.5 h 1.83333 1.83334 l 0.66884,-0.66885 0.66885,-0.66885 -1.62346,-1.7939 -1.62346,-1.79391 0.58989,-1.53725 0.5899,-1.53724 h 1.53138 1.53139 v 1 1 h 1.45469 1.45468 l 0.65661,-3.5 0.6566,-3.5 h 1.91371 1.91371 l 0.58763,2.93814 0.58762,2.93813 1.8419,-1.15028 1.84189,-1.15028 0.75031,0.75031 0.75031,0.75031 -1.0857,2.87636 -1.0857,2.87635 2.13087,0.57009 2.13087,0.5701 2.80895,-2.05814 2.80895,-2.05813 1.19105,0.89724 1.19105,0.89725 26.5,-0.75367 26.5,-0.75366 4.5,-0.58074 4.5,-0.58073 5.64354,-1.09849 5.64354,-1.09848 4.85646,0.71099 4.85646,0.711 11.33743,-0.1777 11.33743,-0.1777 1.91257,1.73085 1.91257,1.73085 v 1.30983 1.30983 l -1.82703,0.9778 -1.82703,0.97779 -4.92297,0.56698 -4.92297,0.56699 -36,0.39042 -36,0.39041 -2.5,1.00616 -2.5,1.00615 -9.58631,1.19766 -9.58631,1.19767 -4.12385,-2.10383 -4.12385,-2.10383 h -2.19483 -2.19483 l 1.65499,1.82874 1.65499,1.82874 v 1.67126 1.67126 h -1.94098 -1.94099 l -0.80901,-1.25 -0.80902,-1.25 -0.5,4.49105 -0.5,4.49106 -1.62896,0.30896 -1.62895,0.30895 z m 6.61487,-6.86225 -2.17431,-2.31445 v -0.71778 -0.71777 l 2.25,-0.90439 2.25,-0.90439 -2.09501,-0.0634 -2.09502,-0.0634 -1.55175,-1.75 -1.55175,-1.75 -0.48723,-2 -0.48724,-2 -0.116,2.85699 -0.116,2.85699 -1.38682,-0.53217 -1.38681,-0.53217 0.50345,1.92518 0.50344,1.92518 h -1.80776 -1.80776 l 1.90338,1.39179 1.90339,1.39179 -1.46226,1.8582 -1.46225,1.85822 1.77416,-1.3925 1.77417,-1.3925 0.63383,0.63382 0.63382,0.63382 1.39654,-1.15902 1.39653,-1.15901 2.1677,2.16769 2.16769,2.1677 h 0.4521 0.45209 z m 31.82569,-4.08291 12.5,-1.4604 30.5,-0.14124 30.5,-0.14124 5.91715,-0.39703 5.91715,-0.39703 0.94572,-0.94572 0.94571,-0.94572 -0.68196,-1.10344 -0.68197,-1.10345 -0.92016,0.5687 -0.92017,0.56869 -14.53612,0.46325 -14.53612,0.46325 -0.5914,-1.54115 -0.5914,-1.54116 -1.13321,0.91246 -1.13322,0.91246 -4.5,0.76075 -4.5,0.76075 -2.5,0.32516 -2.5,0.32516 -19,0.57455 -19,0.57456 -10.94123,0.27628 -10.94122,0.27628 -0.33698,1.01092 -0.33697,1.01092 2.2782,1.131 2.2782,1.131 3,-0.43408 3,-0.43407 z m -32.87244,-5.35264 1.37244,-1.75 -1.75,1.37244 -1.75,1.37245 v 0.37755 0.37756 h 0.37756 0.37755 z m -9.12756,0.25 v -0.5 h -0.5 -0.5 v 0.5 0.5 h 0.5 0.5 z m 100.72917,-3.10417 -0.60417,-0.60416 -1.3125,0.52521 -1.3125,0.52522 1.91667,0.0789 1.91666,0.079 z"
         style="fill:#000000"
         id="path1-4" /></g></g></svg>
