<?xml version="1.0" encoding="UTF-8" standalone="no"?>
<!-- Created with Inkscape (http://www.inkscape.org/) -->

<svg
   version="1.1"
   id="svg1"
   width="64.15033"
   height="99.774406"
   viewBox="0 0 64.15033 99.774406"
   sodipodi:docname="Screenshot 2023-09-18 023935.png"
   xml:space="preserve"
   xmlns:inkscape="http://www.inkscape.org/namespaces/inkscape"
   xmlns:sodipodi="http://sodipodi.sourceforge.net/DTD/sodipodi-0.dtd"
   xmlns="http://www.w3.org/2000/svg"
   xmlns:svg="http://www.w3.org/2000/svg"><defs
     id="defs1" /><sodipodi:namedview
     id="namedview1"
     pagecolor="#505050"
     bordercolor="#eeeeee"
     borderopacity="1"
     inkscape:showpageshadow="0"
     inkscape:pageopacity="0"
     inkscape:pagecheckerboard="0"
     inkscape:deskcolor="#505050" /><g
     inkscape:groupmode="layer"
     id="layer2"
     inkscape:label="Layer 1"
     transform="translate(-648.13312,213.86674)"><path
       d="m 673.1331,-114.82554 -6.5,-0.7332 -6.21094,-1.65677 -6.21094,-1.65676 -0.90277,-1.14953 -0.90276,-1.14952 -0.70625,-6 -0.70625,-6 -0.45928,-5 -0.45929,-5 -0.73001,-16 -0.73002,-16 0.6544,-1.5 0.6544,-1.5 -0.86411,-5.43492 -0.86412,-5.43493 0.91177,-1.09861 0.91176,-1.09862 -0.92748,-1.46646 -0.92749,-1.46646 -0.0153,-5.07568 -0.0153,-5.07569 2.25,-1.96987 2.25,-1.96987 2.5,-1.18708 2.5,-1.18708 4.55685,-0.97831 4.55684,-0.97832 11.94316,-0.63676 11.94315,-0.63677 7.85817,1.01426 7.85817,1.01425 2.96699,2.83346 2.96699,2.83346 -0.63994,15 -0.63994,15 0.0215,8 0.0215,8 -0.007,1.5 -0.007,1.5 -0.52902,18.16721 -0.52902,18.16721 -1.82152,1.64845 -1.82151,1.64845 -5.84871,1.32465 -5.8487,1.32465 -7.5,0.39918 -7.5,0.39918 z m 9,-2.28677 v -0.44098 l -0.9309,-0.57533 -0.9309,-0.57533 -0.62812,1.01631 -0.62811,1.01632 h 1.55901 1.55902 z m -10.21234,-1.10469 -0.54567,-0.54567 -6.3638,-1.71743 -6.3638,-1.71743 -1.28869,-2.68876 -1.28869,-2.68876 -0.96531,-16.29813 -0.9653,-16.29814 0.29838,-20.02444 0.29838,-20.02444 0.79957,-1.29373 0.79957,-1.29374 1.39885,0.53679 1.39885,0.53679 v -2.3499 -2.3499 l 4.62164,-1.16374 4.62164,-1.16374 -0.41459,-0.41459 -0.41459,-0.41459 -6.42051,1.49781 -6.42051,1.4978 -1.60108,1.44896 -1.60109,1.44897 0.33456,25.26285 0.33457,25.26284 1.03675,15 1.03675,15 0.98858,1 0.98857,1 7.20465,1.65309 7.20466,1.6531 0.91667,0.0969 0.91666,0.0969 z m 21.974,-0.1414 -1.73834,-0.45508 -2.26166,0.4349 -2.26166,0.43489 4,0.0202 4,0.0202 z m 11.59124,-2.69768 1.85289,-1.16384 0.34673,-5.4757 0.34673,-5.4757 0.54171,-36.13474 0.54172,-36.13474 -1.49134,-1.23771 -1.49134,-1.2377 v 1.4294 1.42941 l -2.75,1.07119 -2.75,1.07118 3,-0.12814 3,-0.12815 0.17842,17.5 0.17842,17.5 0.1866,6 0.18661,6 -0.2774,1 -0.2774,1 -0.15107,3 -0.15107,3 -0.18655,10.25 -0.18656,10.25 h -2.22251 -2.2225 l 2.2225,1.5567 2.22251,1.5567 v 1.20626 1.20625 l -5.25,1.66559 -5.25,1.66559 4,-0.539 4,-0.53901 z m -24.68623,-0.28191 -0.66667,-0.66667 v 1.33334 1.33333 l 0.66667,-0.66667 0.66666,-0.66666 z m -8.96482,0.0352 -0.63148,-0.63148 1,-1.86852 1,-1.86851 h -2.60474 -2.60473 l 0.31955,-2.20901 0.31955,-2.209 2.38273,-0.5584 2.38273,-0.55839 -1.63273,-1.35505 -1.63273,-1.35504 v -1.87755 -1.87756 l 1.25,0.0153 1.25,0.0153 1.49384,0.9444 1.49383,0.94441 1.51556,-3.20972 1.51556,-3.20971 h 1.4906 1.49061 l 0.31342,2.71886 0.31342,2.71887 1.8911,-1.18101 1.8911,-1.18101 0.75031,0.75031 0.75031,0.75031 -1.08206,2.8667 -1.08206,2.8667 4.62723,0.70521 4.62723,0.70522 4.25,0.18014 4.25,0.18014 0.0723,-9.54022 0.0723,-9.54022 0.44304,-4 0.44305,-4 0.52252,-21.62798 0.52252,-21.62797 -4.7879,1.12797 -4.7879,1.12798 -19.03571,-0.003 -19.03572,-0.003 -0.25714,1.75338 -0.25714,1.75338 0.0565,3.75 0.0565,3.75 -0.006,7.5 -0.006,7.5 -0.11812,6.5 -0.11813,6.5 0.57761,10 0.5776,10 0.63683,4.82041 0.63683,4.8204 3.89648,-0.6583 3.89648,-0.65831 v 1.4897 1.48969 l -3.18693,2.01782 -3.18693,2.01782 3.93693,0.70861 3.93693,0.70861 1.5,0.84137 1.5,0.84136 0.41667,0.0304 0.41666,0.0304 z m 5.29815,0.13149 v -0.5 h -0.5 -0.5 v 0.5 0.5 h 0.5 0.5 z m 7,0 v -0.5 h -0.5 -0.5 v 0.5 0.5 h 0.5 0.5 z m 4,0 v -0.5 h -0.5 -0.5 v 0.5 0.5 h 0.5 0.5 z m 10.88961,-1.61137 3.18805,-1.11136 -1.78883,-1.35683 -1.78883,-1.35684 -6.29669,-0.0318 -6.29668,-0.0318 1.79668,2.46857 1.79669,2.46858 3.10078,0.0314 3.10077,0.0314 z m -23.88961,-0.38863 v -0.5 h -0.5 -0.5 v 0.5 0.5 h 0.5 0.5 z m 11.02259,-5.76447 2.47741,-0.46317 -2.75,-0.13618 -2.75,-0.13618 v -1.38337 -1.38337 l -1.77953,-0.46536 -1.77953,-0.46535 -1.22047,1.30651 -1.22047,1.30652 v 1.04221 1.04221 l -1.75,0.0789 -1.75,0.079 1.25,0.50439 1.25,0.50438 v 1.34335 1.34334 l 1.75,0.34287 1.75,0.34288 2.02259,-2.1702 2.0226,-2.1702 z m -27.02259,2.76447 v -0.5 h -0.5 -0.5 v 0.5 0.5 h 0.5 0.5 z m 5,-2 v -0.5 h -0.5 -0.5 v 0.5 0.5 h 0.5 0.5 z m 36,0 v -0.5 h -0.5 -0.5 v 0.5 0.5 h 0.5 0.5 z m -26,-6 v -0.5 h -0.5 -0.5 v 0.5 0.5 h 0.5 0.5 z m 18.43453,-66.39407 0.55257,-0.89407 -12.74355,0.52601 -12.74355,0.526 -0.41667,0.36807 -0.41666,0.36806 h 12.60765 12.60765 z m -26.76786,-0.7726 -0.66667,-0.66666 -0.66667,0.66666 -0.66666,0.66667 h 1.33333 1.33333 z m 31.33333,-0.83333 v -0.5 h -0.5 -0.5 v 0.5 0.5 h 0.5 0.5 z m -0.005,-3.29853 3.49451,-0.78121 -1.22896,-0.75954 -1.22895,-0.75953 -9.76555,0.0851 -9.76555,0.0851 -3,0.39602 -3,0.39602 -4.5,0.6911 -4.5,0.6911 2,0.88236 2,0.88236 13,-0.51383 13,-0.51382 z m 7.0055,-3.70147 v -0.5 h -0.5 -0.5 v 0.5 0.5 h 0.5 0.5 z m -26.73097,-1.15594 -1.23097,-0.49804 -1.76903,0.46099 -1.76903,0.46099 3,0.037 3,0.0371 z m 20.98097,-0.006 -1.25,-0.50438 -1.25,0.50438 -1.25,0.50439 h 2.5 2.5 z m -6.98097,-0.99365 -1.23097,-0.49804 -1.76903,0.46098 -1.76903,0.46099 3,0.037 3,0.037 z"
       style="fill:#000000"
       id="path1" /></g></svg>
