<?xml version="1.0" encoding="UTF-8" standalone="no"?>
<!-- Created with Inkscape (http://www.inkscape.org/) -->

<svg
   version="1.1"
   id="svg1"
   width="89.146057"
   height="78.234062"
   viewBox="0 0 89.146057 78.234062"
   sodipodi:docname="Screenshot 2023-09-18 023935.png"
   xml:space="preserve"
   xmlns:inkscape="http://www.inkscape.org/namespaces/inkscape"
   xmlns:sodipodi="http://sodipodi.sourceforge.net/DTD/sodipodi-0.dtd"
   xmlns="http://www.w3.org/2000/svg"
   xmlns:svg="http://www.w3.org/2000/svg"><defs
     id="defs1" /><sodipodi:namedview
     id="namedview1"
     pagecolor="#505050"
     bordercolor="#eeeeee"
     borderopacity="1"
     inkscape:showpageshadow="0"
     inkscape:pageopacity="0"
     inkscape:pagecheckerboard="0"
     inkscape:deskcolor="#505050" /><g
     inkscape:groupmode="layer"
     id="layer4"
     inkscape:label="Layer 3"
     transform="translate(-262.65036,199.2534)"><path
       d="m 276.1968,-122.25339 -8.20415,-0.5 -1.03102,-1.03518 -1.03102,-1.03517 -1.06704,-9.96483 -1.06704,-9.96482 0.2085,-11 0.20849,-11 -0.78158,-3.8247 -0.78159,-3.82469 1.12531,-1.12531 1.1253,-1.1253 v -1.8 -1.8 h 1.90393 1.90394 l 6.34606,-3.64576 6.34607,-3.64575 2.83191,-1.60425 2.83192,-1.60424 1.66808,-1.01535 1.66809,-1.01535 4.33979,-2.92696 4.33979,-2.92695 12.66021,0.21272 12.66021,0.21273 8,0.58435 8,0.58435 0.5,0.0567 0.5,0.0567 2.8151,-1.16148 2.8151,-1.16148 h 0.78736 0.78737 l 0.10374,6.75 0.10373,6.75 0.61579,9.5 0.6158,9.5 0.87573,6.41341 0.87573,6.41342 -0.94773,1.77084 -0.94772,1.77084 v 2.06574 2.06575 h -2.31885 -2.31885 l -9.68115,9.96572 -9.68115,9.96573 v 0.98736 0.98735 l -3.50652,1.66395 -3.50652,1.66396 -1.5304,-1.27012 -1.53039,-1.27012 -5.60736,0.18324 -5.60737,0.18323 -1.10572,0.71985 -1.10572,0.71985 h -9 -9 z m 25.20416,-2 0.61803,-1 3.69099,-0.0153 3.69098,-0.0153 1.38782,-0.87888 1.38781,-0.87888 -5.38781,-0.43662 -5.38782,-0.43662 -5.77053,0.94128 -5.77053,0.94128 -4.45616,-0.66825 -4.45616,-0.66824 -0.61234,-0.99078 -0.61234,-0.99078 -1.39823,1.16043 -1.39824,1.16044 -1.62619,-0.62403 -1.62619,-0.62403 0.46169,-1.76548 0.46168,-1.76548 -2.59823,0.0276 -2.59823,0.0276 -0.16961,-16.5 -0.16961,-16.5 1.31723,-4 1.31722,-4 13.00263,-0.27833 13.00262,-0.27833 1.52833,1.52833 1.52833,1.52833 h 0.96444 0.96444 l 0.57561,-1.5 0.5756,-1.5 h 3.69805 3.69805 l -0.74363,-0.75 -0.74363,-0.75 -4.67304,-1.00648 -4.67303,-1.00649 -0.13978,-8.25212 -0.13977,-8.25213 2.13977,-0.48008 2.13978,-0.48007 5,-0.28015 5,-0.28014 -6.44438,-0.48117 -6.44438,-0.48117 -3.55562,1.66905 -3.55562,1.66906 1.73095,0.081 1.73095,0.081 0.57517,2.29166 0.57517,2.29167 -0.30612,5.95833 -0.30612,5.95834 -12.25,0.23072 -12.25,0.23073 v -1.95684 -1.95684 l 3.75,-1.97969 3.75,-1.97969 -1.05422,-0.0442 -1.05422,-0.0442 -4.73051,3 -4.73051,3 h -0.55498 -0.55498 l -1.79233,2.21343 -1.79233,2.21344 1.55462,3.26008 1.55462,3.26008 -0.97334,2.27648 -0.97335,2.27649 0.16558,9.5 0.16559,9.5 1.12638,8.43554 1.12638,8.43555 0.93095,0.57536 0.93095,0.57536 13.82785,0.32913 13.82785,0.32914 0.41667,0.40996 0.41666,0.40996 h 0.77432 0.77432 z m 22.96384,-3.87711 1.38375,-2.62289 11.5762,-11.29645 11.57621,-11.29645 -0.008,-2.70355 -0.008,-2.70355 -1.0814,-8.5 -1.08139,-8.5 -0.34627,-7.5 -0.34626,-7.5 -0.81475,-2.17265 -0.81475,-2.17266 -1.83073,1.34193 -1.83073,1.34192 1.90704,1.90704 1.90703,1.90703 0.26489,10.9237 0.26489,10.92369 0.37479,4 0.37478,4 0.65065,2.25 0.65065,2.25 h -1.08524 -1.08525 l 0.48157,1.25496 0.48157,1.25495 -10.37941,10.34409 -10.37941,10.34408 -1.86833,-0.35981 -1.86833,-0.3598 -0.70759,-3.98924 -0.70758,-3.98923 -0.0576,-6.73095 -0.0576,-6.73095 2.75,-0.60652 2.75,-0.60652 1,-0.33358 1,-0.33358 -3.75,-0.079 -3.75,-0.079 v -9.45332 -9.45331 l 2.53502,-1.79669 2.53503,-1.79668 5.71497,-5.25756 5.71498,-5.25755 -1.75,0.61454 -1.75,0.61454 v 0.89301 0.89302 h -0.99502 -0.99501 l -8.02006,6.12938 -8.02005,6.12938 1.0248,1.23481 1.0248,1.2348 -0.22709,7.61556 -0.22709,7.61555 -3.53264,1.46873 -3.53264,1.46873 2.62755,0.0515 2.62756,0.0515 1.00153,1.25 1.00153,1.25 0.46095,10.84277 0.46094,10.84277 -1.45737,0.55925 -1.45737,0.55924 2.26946,1.21458 2.26947,1.21458 1.88792,-0.4937 1.88793,-0.4937 z m -17.96384,-2.23804 8,0.25833 -0.32135,-9.68799 -0.32135,-9.68799 -4.16683,0.66631 -4.16682,0.6663 -0.81152,1.45009 -0.81151,1.4501 h -1.36698 -1.36697 l -0.43622,-1.25 -0.43622,-1.25 -5.20248,5.25 -5.20249,5.25 h -0.80713 -0.80712 l -3.75687,2.98558 -3.75686,2.98558 1.36936,0.43519 1.36936,0.43519 1.5,0.55253 1.5,0.55253 6,-0.66004 6,-0.66003 z m -25.60427,-4.86998 3.39574,-2.90385 -2.05991,0.53868 -2.0599,0.53867 -2.26014,2.40581 -2.26015,2.40582 0.92432,-0.0406 0.92431,-0.0406 z m -5.30072,-1.12192 1.90499,-2.10705 3.69837,-1.48087 3.69838,-1.48088 2.53021,-3.31728 2.53022,-3.31729 3.48464,-2.15362 3.48464,-2.15363 -0.56397,-2.81989 -0.56398,-2.81988 1.10075,-0.6803 1.10074,-0.68029 -0.0137,-3.19099 -0.0136,-3.19098 -0.60298,-2.25 -0.60297,-2.25 h -11.76679 -11.7668 l -0.4121,2.25 -0.41211,2.25 -0.28869,15.75 -0.28869,15.75 h 0.92923 0.92923 z m 57.94932,-8.71627 -1.54433,-0.32333 v -3.36765 -3.36766 l -0.77471,-0.47879 -0.7747,-0.4788 -3.4753,0.71532 -3.47529,0.71533 -0.0491,5.89294 -0.0491,5.89295 0.42595,2.90213 0.42594,2.90212 5.41753,-5.34062 5.41754,-5.34061 z m -40.54433,0.73137 2.5,-2.59194 1.5,-1.88198 1.5,-1.88198 -4.80216,3.88713 -4.80216,3.88713 -1.11156,2.08679 -1.11156,2.0868 1.91372,-1.5 1.91372,-1.5 z m 48.73957,-7.44447 -0.23957,-0.18223 -2.75,-0.65973 -2.75,-0.65972 v 3.70614 3.70614 l 2.98957,-2.86419 2.98957,-2.86418 z m -36.95716,-2.17622 -0.96529,-1.21264 -0.54745,-6.03736 -0.54745,-6.03736 h -0.86111 -0.86111 v 4.33333 4.33334 l -0.64939,0.64939 -0.64939,0.64939 -0.10061,3.49273 -0.10061,3.49273 1.5,0.337 1.5,0.33701 1.62385,-1.56246 1.62385,-1.56246 z m 3.21759,2.21264 v -0.5 h -0.5 -0.5 v 0.5 0.5 h 0.5 0.5 z m 36,-2 v -0.5 h -0.5 -0.5 v 0.5 0.5 h 0.5 0.5 z m -8.45806,-3.5 h 1.39529 l -0.5756,-1.5 -0.57561,-1.5 2.85699,-0.0789 2.85699,-0.079 -1.5,-0.55532 -1.5,-0.55533 -1.26233,-0.99841 -1.26233,-0.9984 1.2141,-1.61732 1.2141,-1.61732 -1.40177,1.25 -1.40177,1.25 h -0.73045 -0.73045 l -0.43337,-2.25 -0.43337,-2.25 -0.13618,2.75 -0.13618,2.75 h -1 -1 v 1.5 1.5 h -0.8294 -0.8294 l 0.0794,2.25 0.0794,2.25 2,0.55904 2,0.55905 0.32332,-1.30905 0.32333,-1.30904 z m 4.45806,2.5 v -0.5 h -0.5 -0.5 v 0.5 0.5 h 0.5 0.5 z m -28.30062,-1.29304 1.19938,-0.76242 0.68871,-6.72227 0.68872,-6.72227 h -4.76726 -4.76726 l 0.68646,6.06752 0.68646,6.06753 0.54969,1.43247 0.5497,1.43248 1.64301,-0.0153 1.64301,-0.0153 z m 30.96729,-0.87363 -0.66667,-0.66666 -0.66667,0.66666 -0.66666,0.66667 h 1.33333 1.33333 z m -16,-1 -0.66667,-0.66666 -0.66667,0.66666 -0.66666,0.66667 h 1.33333 1.33333 z m -0.66667,-5.27431 v -0.94099 l -1,-0.61803 -1,-0.61803 v -2.00495 -2.00495 l 3.19633,0.31397 3.19633,0.31397 0.96069,-3.29309 0.96068,-3.29308 1.59299,0.30443 1.59298,0.30444 0.50646,3.48865 0.50646,3.48865 0.80256,-1.25 0.80255,-1.25 h 1.55228 1.55227 l -0.6566,3.5 -0.65661,3.5 h 1.04532 1.04531 v -12.57258 -12.57258 l -2.75,2.15438 -2.75,2.15439 -4,3.68239 -4,3.6824 -2.75,1.75885 -2.75,1.75885 v 5.47695 5.47695 h 1.5 1.5 z m 4,-0.43657 v -0.37756 l -1.75,-1.37244 -1.75,-1.37245 1.37244,1.75 1.37245,1.75 h 0.37755 0.37756 z m 1,-3.12245 v -0.5 h -0.5 -0.5 v 0.5 0.5 h 0.5 0.5 z m 3,-5 v -0.5 h -0.5 -0.5 v 0.5 0.5 h 0.5 0.5 z m -21,-2 v -0.5 h -0.5 -0.5 v 0.5 0.5 h 0.5 0.5 z m 5.2152,-5.36261 3.2848,-2.86262 7.75,-5.18872 7.75,-5.18873 0.002,-0.19866 0.002,-0.19866 -16.7519,0.59685 -16.7519,0.59685 -0.17523,0.15315 -0.17524,0.15315 0.0974,6.42328 0.0974,6.42327 4.57782,0.95851 4.57783,0.95851 1.2152,0.11821 1.21521,0.11822 z m -22.2152,-4.84828 v -6.63774 l -2.25,2.01936 -2.25,2.01937 -6.75,4.29419 -6.75,4.2942 v 0.1171 0.1171 l 9,0.20707 9,0.20708 z m -11.50708,-1.27766 0.61095,-0.98854 -1.55193,0.59553 -1.55194,0.59554 v 0.39301 0.39301 h 0.94098 0.94099 z m 3.50708,-2.51145 v -0.5 h -0.5 -0.5 v 0.5 0.5 h 0.5 0.5 z m 2.5,-1.5 0.61803,-1 h -0.5 -0.5 l -0.61803,1 -0.61803,1 h 0.5 0.5 z m 48.62755,-0.75 1.37245,-1.75 -1.75,1.37245 -1.75,1.37244 v 0.37756 0.37755 h 0.37755 0.37756 z m -45.62755,-1.25 0.61803,-1 h -0.5 -0.5 l -0.61803,1 -0.61803,1 h 0.5 0.5 z m 33.26791,-3.71453 -2.73209,-0.41486 -3.26791,0.40466 -3.26791,0.40466 6,0.0102 6,0.0102 z m 6.23209,0.21453 v -0.5 h -0.5 -0.5 v 0.5 0.5 h 0.5 0.5 z"
       style="fill:#000000"
       id="path1-7" /></g></svg>
